<?xml version="1.0" encoding="UTF-8"?><svg xmlns="http://www.w3.org/2000/svg" width="336" height="336" viewBox="0 0 252 252"><path style="stroke:none;fill-rule:evenodd;fill:#7c2e9a;fill-opacity:1" d="M174 54l4-1h3c1-1 2-1 1-2h-1l-2-1-1-1h-2l-2 2v3zm10-10h1l3 1 2-2-1-1-3-2h-1l-2 1 1 3zm-4 4h5v-2h-2l-2-2-2 1v2l1 1zm30 37l2-2-2-2-2 2 2 2zm-14-24v1l-2-1v-1h-2v-1l-1-1 1-1h1l2 2 1 2zm-3 5l-1 1-1-2v-1-1c2-1 3 0 3 1l-1 2zm-3-4h-3v-1l1-1c2 0 2 1 2 2zm4-6l-3-3-2-1-2-1-1 2 1 2 2 1-1 1-2 1-4 1-3-1h-1l-1 2 3 3h4l4 3 2 3s-2 2-1 3l1 1 2-2 6-6 2 1 2 3 3 1 1-2v-2h-1l-6-6-1-2 1 1 2 2h1l1-1-1-2-2-2v-1h1l3 4h3v-2a14 14 0 01-5-5v-1l-1-1-1 1-1-1-2-1v-1l-2-1-1 3 1 1 3 2h-2l-2-2h-1-1v2l1 1h1l2 2h-2zM64 59l1-1 1 1-1 1-1-1zm-6-11h1v2h2l1 1v3L52 65h-1v4h3l4 2 1 2 1-2-2-3-3-1v-2l4-4v1l1 2 2-2 2-1v2l-3 3v1l2 1 1-2 3-3c1-1 2-1 2 1l-4 4s-1 1 2 2l2-2 1-1 2-4-2-4 2-1 1-2-1-2-2 2-1 1-1-1-1-2-3 2-2 3-2 1v-1l6-7 3-1 1 1 2 2 2-2-2-3-2-2h-1-2l-2 3s-1 1-1-1l-2-3h-1l-1-1-1-1-2 1c-1 1-2 2-1 3h2zM47 59l3 2 2 2 2-1 1-4-1-1-1 2h-1v-1-1l-2-1-1 1c0 1 0 0 0 0v-2l-1-1h-1l-1 4 1 1zm-9 46l2 1 3-9-2-1-1 3-10-3-1 4 10 2zm4-20c1 0 2-1 2-3l-2-2-2 2c0 2 1 3 2 3zm47-46l3-3 4-2v7l-4 4-2 2 1 3h2c2 0 4-1 4-3 1-1 2-3 2-8 0-4 2-2 2-2s8 6 11 6 5-1 6-5c1-1 0-1-1-1l-13-3c-5-1-3-2-2-3l6-1s2-2 1-3l-2-2-6 2-2 1h-2l-1-4c-1 0-2 0-3 2l1 4-1 1-5 2-2 3 3 3zm121 61l6 1-5 4 1 4 7-6 4-2-1-3-4 1-9-2zM54 52l3 1-1 1h-1l-1-2zm-3 1h2v1l1 1h1l2 2h1v-2l2-1v-1h-1-1v-1l-1-1h-1l-1-1-1-2-1 1v1l-1 1h-1l-1 1 1 1zm91-19h1l2-2v-1l-1-1 2-1 1 1-1 5h-3l-1-1zm4-8c1-1 4 0 5 1v1l-2-1-3-1zm7 4l1 2-1 1h-2l1 1v1l-2 1-1-1v-2l2-3h2zm-19 7h6l6 1-2 2-5-2-5 1 2 2 8 2-1 4h2l1-3h1l4 1h4c1-2-1-2-1-2l-4-1-2-2v-1l6 3 6 2 3-2-2-2-2-1-4-1-1-1h4v-2l-1-1-1-2 1-2-1-1v-1l3 1 1-2-4-2v-2h-2l-1 1-3-1h-3l-1-2h-2l-2 1h-3v3h1l3 1h-3v2l1 1v1h-2l-3 1 2 2h2l-1 1-5-1-2 1c-1 1 1 2 2 3zm81 73h-3l1 10h3l-1-4 11-1-1-3-10 1zm-30 78l-2 2 5 6c2 3 0 4-2 4l-1-1-5-6-3 2 6 7c1 2 2 2 3 2 3-1 5-3 6-5l-2-5zm-43 22l-3 4 2 2 2-2 1 8h3l-2-12zm-22 6l-2 1c-3-1-1-4 0-4l2 2v1zm2-3l-4-2c-2 0-4 2-4 4l1 2 2 2c2 0 4-2 3 1l-2 1h-3l-1 2s4 1 7-1l2-5-1-4zm9-1l-4 3 2 2 2-2 1 9h3l-1-13zm21 1l1 3 10-4-1-3zm61-87h13v-4h-13zm8 2c-1 0-2 1-2 3-2 5-4 3-4 1v-3h-2v4l2 4c1 1 4 1 5-3s3-3 4-1v3l2 1v-5c0-4-4-4-5-4zm-5 17v1h-3l1-4c1 0 3 1 2 3zm3-3h-1 1l-2-3c-2-1-4-1-5 2l-2 6v1l13 3 1-3-5-2 1-2h5v-3h-5l-1 1zm-15 21l7 8-10-2-2 3 14 2 2-4-10-10zm13-3l-3-2 2-4-2-1-2 5-3-1 2-5-2-1-3 8 12 5 3-9-2-1zm-20 16l10 7 2-3-11-7zm-4 4l7 7-10-4-3 4 10 8 2-2-7-6 10 3 3-4-10-8zm-21-28v3l1 1 1-1-1-3h-1zm6-10l1-1 2-1v-1l-1-1h-1l-1 1v1l-1 1 1 1zm6-33l-1 1v-1h-1l-1-1v-1l-1-1v-1l1-1h1l1 1 1 1v3zm-6 6l-1 1h-1l-1-1v-1l-1-1v-1l1-1 2 1v2h1v1zm-6-5l-1-1 1-1v-1h2l1 1-1 1-2 1zm-1 3l-2 1-1 1h-1l-1-1v-2h3l2 1zm16-3l-1-1v-2l-1-1-1-3v-1h-1v-1h-3l-1 1v1l-1 1-1 1 1 2v1h-1l-2-2v-2l-1-1-1-1v1l-2 2-2 3v2l-2 1-2-1-1 1v4l1 1v1l1 1 1 1h1l1-1v-1l2-1v-2l1-1 1 1v2h1v2h5l1-1v-2l-1-1-1-2 1-2h1l2 2h2l3-1v-1zm-23-3l4-2 1-3v-2-2h1l2 1c1 2 2 2 3 1l2-1 1-1v-2l-1-1v-1l-1-1v-1h-2v1l1 2 1 1c1 2-2 2-3 2-2-2-2-5-5-2l-2 2v2l1 1v1l-1 1-4 1-2-1c-2 0-2 2-1 3l2 1h3zm-52-26l-1-1 2-1v1l-1 1zm-1-3h-1l1-1h2l-1 1h-1zm-4 0h-2v-1l1-1 2-1 2-1h2l-1 1-4 3zm-3-3h-1l1-1 2-1 1-1h3v-1l1 1h-1l-1 1-1 1-3 1h-1zm15 5h-3l-1-1v-1-1l-1-1v-7l-1-1-1 1h-1-1l-1 1h-1l-2 1h-1l1-1 3-2h1l2-1 1-1v-1h-2l-7 3-7 3-3 2 1 2 2 4 2 3 1 3 1 2v5l1 1 1-2v-4l-1-4-2-4-2-2v-2l1-1 2-2h1v1l-1 1v2l1 2 1 2 1 1h1l1-1h1v2h1l2 1-1 1h-1l-1 2 1 1 1-1 2-1h2l-1 2v1h-2l-1 1v2h1l1 1 2-2 1-2 1-1v-3l1-1h2l1-1v-1-1zm31 84l1-1-1-1v-2l-1-1v3l1 2zm-10 4h2v-2l-1-1-1 1v2zm-6-1l2-1 2-2h2l3-1 2 2h1v-2-1-2l-1 1h-1-1l-3-1-2 1-2 1-1 1v1l-1 1v2zM33 116c2-4 4-3 4-1l-1 4h3v-5c1-4-4-4-4-4l-3 2c-2 5-4 4-4 2l1-4h-2l-1 4 1 4c1 1 5 2 6-2zm117 52l1 1-2 1a108 108 0 01-9 5v-2l2-1 4-2 2-1 2-1zm3 4l-1 1-1 1-1 1h-1l-2 1-2 1h-1l-1 1-2 1v-1-2h2v-1h2l3-2 1-1 2-1 2 1zm1 4c0 2-1 2-2 2l-3 2-2 1-3 1h-2l1-2h2l1-1 1-1a36 36 0 015-2l2-1v1zm-10-7h-2l-1 1-3 3v6l1 1v1l1 2 2 3 3-1 4-2 3 1s0 1 0 0v-2a299 299 0 005-6l-2-3-1-2-2-3-1-2-1-1-1 1-3 1-2 2zm33-22l-1-2-1-1-1-1v-1l-2-4-1-4v-1h-2v4l2 3v2h-2l-3-2h-2l-1-1-1 1v2l3 2 3 1h4v1l-1 1h-1-4l-3 1-2 2 1 2h1l1-1 3-1 3-1h3l1-1h2l1-1zM66 114l1 2h1l1-2v-2-2h-2l-1 1v1l-1 1 1 1zm118 23l-1 1v4l-1 3a94 94 0 00-4 7l-1 1v1l-1 1v2 1l1 2 1-2 1-2 1-2 1-2 1-1 2-4 1-3v-2-2l-1-3zM38 155l-2 1 1 2-3 1-1-3v-2c1-2 5-3 7-1 3 1 2 5 2 5h3l-2-6c-1-2-4-3-6-3h-3l-3 2c0 1-2 3 0 8l2 3 7-2zm97 17l2-2v-2h-1l-1 1-1 1v1l-1 1 1 1 1-1zm-95-31l-10 1 9-6v-4l-13 2v3l10-2-9 6 1 4 12-1zm-2-17H26v3h12v-3zm23 60l-2-3-5 5c-4 3-6-1-5-2l7-6-1-3-7 6s-3 2-1 6 6 3 8 2l6-5zm-11-15l-4 2-2-3 4-3-1-3-11 6 1 3 5-2 2 3-5 3 2 3 11-7zm36-63v2l-1 1h-1v2l-1 1v1l-1 1-2-1h-2-2l-1-1h-2l-1 1v5h3v-2l1-1h3l2 1 2 3h2v-2-1-2h1v-2s-1 0 0 0l1-2h2l1-1h2l2-3-1-3-1-1-1-1v-1h-2l-1 1 1 2h2v2l-1 2-2 1v-1l1-2h-1-2v1zm-23 90l-2-2 4-2zm-9-2l2 2 3-1 3 3-1 3 2 3 6-13-3-3zm14-48l1-1-2-2-2 1 1 2h2zm86-68h-2-2l-2-1h-1l-1-1h-2l-3-1-1-1v-1l2-1h2l2 1h2l1 1 3 1 1 1 1 1v1zm-2 4l-1 1h-1-1l-3-1h-2-2l-2-2h-1v-1l2-1h2l1 1h1l1 1h5l1 1v1zm-2 5l-1 1v1h-2-1-2a277 277 0 00-6-3v-2l1-1h1l1 1h4l1 1h4v2zm4-13l-1-2h-2l-2-1v-1-1l1-1-1-1-1 1-1 1-1 1h-3l-1-1-3 1-1 1-1 3v3l-1 2v4l-1 3 1 1 1 1 1 1v1h3l2 1h1l1 1h3l3-2 1-3v-1l1-2 1-1 1-1 1-2v-2-2l-2-2zm-28 62l14 9-5-15 13-11h-16l-6-16-5 16h-17l14 10-6 16zm-43 9l1 1-1 1-1-2h1zm1-2l1 1 1 1h-2v-2zm3 6l-1 1-1-1 1-1 1 1zm0-3c2 0 2 2 1 2l-1-1v-1zm-16-2v3l-2 2 1 2 1-1 1-2 2 1c1 0 3 2 2 3l-1 1-2-1c0-1-2 0-2 2l1 1v2l3-1 2 1h2l-1-1-1-2 4 2 2 2c1 1 2 0 2-2l-2-1-4-4c1-1 2 0 3 2 1 1 3 0 2-1v-1l1 1 2 1 3-4v-2l-1-1 1-1 2 2 1-1-1-2v-1l1-2-1-1-2 1h-2l-1-1-1 1c1 0 2 1 1 2l-2-1h-2l-3 1c-1 1-2 1-1 2l1 2v1l-2-1-1 1c1 0 2 1 1 2l-1-1-2-2 1-2 4-5 5-1c3-2 2-3 1-3l-1 1h-2l1-3 1-2-3 1v1s0 2-2 3l-2 1-3-1c-1 0-2 1-1 2h1c1 0 3 0 2 2l-3 3-2-1c0-1-1-4-3-4l-1 1 3 4zm3-39v-1h1v2h-1v-1zm2-5l1 1h1v-1l1-1h1v3l-1 1-1 2v1h-1v-1-2l-1-1-1-1 1-1zm1-3l1-1 1 1v1h-1l-1-1zm-9 11l2-1v-1l1-1v-2-1l1-1v4l-1 2 1 1h3l1 1h1l1-1 1-1h1v1l1 1 1 1v-1-1l1-1 1-2 1-1 1-2v-2l1-1h-3v1l-1 2-1 2v2h-1-1v-1l1-3 2-2v-2-1l-2-2-2-1h-2l-1 3-1 1-1 1-1-1v-1l1-1v-2-1h-1l-1 1-1 2-1 3-1 1v2l-1 1v2l-1 2 1 1zm29 66l4 1 2 2-1 2-1 1-1 2 1 2h1l1-3 3-5-1-2 1-3 4-2-1-1-3 1-2 3h-2v-1l3-3 2-2 2-1-1-1-2 1-2 1-4 4h-1v-2l3-4 5-2 2-2h-5l-7 5-2 2-1 3v2l3 2zm11 6l-1 2v4s1 1 2-1l1-3h2v3l1 1 1 1 1-3 1-3v-1l-3-1-1-3 2-2h2l2-1 1-2h-4v-2l2-3v-2l-2-1-1 3-1 3-1 3-1 3-2 3-1 2zm-26-3l-1-1 2-3 3-3 3-2 2-3c3-1 3-3 3-3l3-3 3-3c2 0 3-2 3-2l2-2c1 1 2 3 4 3l4 2 3 1c1 0 3 2 4 1l3 1v33h-4l-6-1-6-1s-1-2-5-2c0 0-2-2-6-2 0 0-1-3-5-3 0 0-2-3-5-3 0 0-1-3-4-4zm3 10c-2 0-3-1-4-3l1-5v-1l2 2 1 5v2zm-5-12l-1-1-1-1-1-1v-1h1l2 1 2 1-1 2h-1zm0 6v3l-4-4 1-5v-1l3 2v5zm-5-4v2c-2 0-3-2-3-3-1-2 1-4 1-5v-1l3 2-1 5zm-4-4l-1 2-2-4c-1-1 1-4 1-5l1-1 2 3c1 1-1 4-1 5zm-5-3l-2-4 2-5 1-1 1 3c1 1-1 4-1 5l-1 2zm-3-6c-2-1-2-2-2-4l2-4 1-1 1 2c1 1-1 5-1 5l-1 2zm-3-5c-2-1-2-3-2-5l3-4 1-1 1 3-2 5-1 2zm-3-6l-1-5 3-4 1-1 1 3c0 2-2 4-3 5l-1 2zm-2-6l-1-5 4-3 1-1v3c1 1-2 3-3 4l-1 2zm-2-11l4-3 1-1v3l-3 4-2 1v-4zm0-7l4-2 1-1v3l-4 4-1 1v-5zm0-6l4-2 1-1v3l-4 3-2 2 1-5zm0-6l4-3h2l-1 3-4 3-2 1 1-4zm1-7l5-1 1-1-1 3-4 3-2 1 1-5zm2-6l5-1 1-1-1 3c0 2-4 2-5 3h-2l2-4zm2-6l5-1h1l-1 3-5 2h-2l2-4zm3-6h6l-2 2c0 2-4 2-5 2h-2l3-4zm3-5h6l-1 2-6 1h-2l3-3zm3-6l5 1h2l-2 2-5 1h-2l2-4zm5-5l4 1h2l-2 3h-8l4-4zm4-4c2-1 4 1 5 1h1l-2 2h-7c0-2 2-3 3-3zm5-4l5 1 1 1-2 2-5-1-2-1 3-2zm6-4l4 2 1 1-2 1c-2 1-5-1-5-1l-2-1 4-2zm5-3l4 2 1 1-2 2-5-2-2-1 4-2zm5-3c2 0 4 2 5 3l1 1-3 1-5-2-2-1c1-2 3-2 4-2zm7-2l4 3 1 1-3 1c-1 1-4-2-5-2l-2-2 5-1zm6-2l3 4 1 1h-3c-1 1-4-2-4-3l-2-1 5-1zm6-1c2 0 3 3 3 4l1 1h-3l-4-3-1-2h4zm7-1l2 4 1 2h-3l-4-4-1-2h5zm6 0l2 5 1 1h-3l-3-4-2-2h5zm6 1c2 1 2 4 2 4l1 2-3-1c-2 0-3-3-3-4l-1-2 4 1zm7 1l1 5 1 1-3-1c-2 0-3-3-3-4l-1-2 5 1zm6 2l1 5v1l-3-1-2-5v-2l4 2zm6 2l1 5v1l-3-1-2-5v-2l4 2zm6 3v6l-3-2-1-5v-2l4 3zm1 7s1 2 5 3l4 4 1 1-2 3-3 3c-2 0-2 1-3 3-1 0-2 0-3 2l-3 3-3 3-2 3c-1 0-3 1-3 3l-2 1c-1-2-3-2-4-2 0-2-2-3-3-2l-4-2-5-1-1-1h-1v-3-4-4-4-4-4-4-4-2h4l6 1s2 2 6 1c0 0 1 2 5 2 0 0 1 2 6 2 0 0 1 2 5 3zm4-4v6l-3-2v-5-2c1 0 3 1 3 3zm2 0l3 3v7l-3-2v-6-2zm5 6v-2l3 3c1 2 0 5-1 5v2l-2-2v-6zm5 4v-2c1 1 3 2 3 4l-1 5-1 1-2-2c-1-1 0-5 1-6zm4 3c2 1 3 2 3 4l-2 4v2l-2-3c-1-1 0-4 1-5v-2zm4 7v-2l3 4-2 5-1 1-2-3 2-5zm3 5l1-2 2 5-3 4v1l-2-3 2-5zm4 4l2 4c0 2-3 4-3 4l-1 1-1-2c-1-2 1-4 2-5l1-2zm3 6l1 4c0 2-3 4-3 4l-1 1-1-3c-1-1 2-4 2-4l2-2zm2 6l1 5-4 3-1 1-1-3 3-4 2-2zm2 11l-4 3-1 1-1-3 4-4 1-2 1 5zm0 6c0 2-3 3-4 3l-1 1v-3l4-4 1-1v4zm0 7l-4 2-1 1v-3c0-2 3-3 4-4l2-1-1 5zm0 6l-5 2-1 1v-3c1-2 4-3 5-3l2-1-1 4zm-1 6c-1 2-4 2-5 2l-1 1v-3c1-2 4-3 5-3l2-1-1 4zm-2 7l-5 1h-1l1-3 5-2 2-1-2 5zm-2 6l-5 1h-2l2-3 5-2h2l-2 4zm-3 6h-5-1l1-3 5-1h2l-2 4zm-3 5h-6l1-3h6l2-1-3 4zm-4 5h-5-1l2-3h7c0 1-1 3-3 3zm-4 5h-5l-1-1 2-2h7c0 2-1 3-3 3zm-4 5l-5-1-2-1 3-2c1-1 4 0 5 1h2l-3 3zm-5 4l-5-2h-1l2-2c1-1 5 1 6 1h1c0 2-2 3-3 3zm-6 4l-4-2-1-1 2-2 6 2h1c0 2-2 3-4 3zm-5 3c-2 0-4-2-4-3h-2l3-2 5 2 2 1-4 2zm-6 3l-4-3-1-1 3-1c1-1 4 2 5 2l1 1-4 2zm-6 2l-4-3-1-1 3-1c2 0 4 2 5 3l2 1-5 1zm-6 2l-4-4-1-1 4-1 4 4 2 1-5 1zm-6 1l-4-4v-1l3-1 4 4 1 2h-4zm-7 0l-3-4v-1h3l4 4 1 2-5-1zm-5-24h4l1-1v3l-4 1-1 1v-4zm-4-20h-1 3l2 2v2l-3-1-1-3zm-4-1h2l2 3v1l-3-1-1-3zm36-53l1 1-1 1-1 1-1-1v-1l-2-2 1-1 3 2zm3-3l1 1-2 2-3-2h-2c1-1 2-3 3-2l3 1zm3-2h1l-2 2s-2 0-3-2h-2c1-1 2-3 3-2l3 2zm2-3h2l-2 2c-1 1-2 0-4-1l-1-1 3-2 2 2zm3-3l2 1-2 1c-1 1-2 0-4-1l-1-1 3-2 2 2zm3-3l2 1-2 2-4-2-1-1 3-2 2 2zm3-2h1l-1 2-4-2h-1c0-1 1-3 2-2l3 2zm3-3h1l-2 2-3-1-1-1 2-2 3 2zm2 0l-3-2-2-1 3-2 1 1 2 2v1l-1 1zm19 46v1h-2l-1-3v-2c1 0 2-1 3 1v3zm-27 0v1h-3l-1-4v-1h2c1 0 2 1 2 4zm4-1v2c-1 0-3 1-3-1l-1-3v-1h2l2 3zm4 2c-1 0-3 1-3-1l-1-3-1-1h3l1 3 1 2zm4 0h-3l-1-4v-1h2l2 4v1zm4-1v1h-3l-1-4v-1h2l2 4zm4-4h2l2 3v2l-3-1-1-3v-1zm0 5h-3l-1-4v-1h2l1 4 1 1zm-26-3v-1-1h1l1 3v2h-2v-3zm-25 30l1 1-3 1-2-3 2-1 2 2zm4-1l1 1-3 1-2-2-1-1 2-1 3 2zm4-2h1l-3 2-3-2 1-1c1-1 3 1 4 1zm3-2h1l-2 2-3-1-1-1 1-1c1-1 3 0 4 1zm3-3h1l-2 2-3-1h-1l1-1h4zm3 5l-1 1c-2-1-3-2-2-3l1-1 1-2h1l1 1-1 4zm2 2l-1 2c0-1-2-2-1-3l1-3 1-1 2 2s0 2-2 3zm3 3l-1 1-2-2 2-3v-1l2 1c1 1 0 2-1 4zm2 2v2l-2-3 2-2v-2l2 2c0 1 0 2-2 3zm3 3v2c-1-1-3-2-2-3l1-2 1-2 2 2c0 1 0 2-2 3zm3 3l-1 1s-2-1-1-2l1-3 1-1 2 2-2 3zm5 2v-2l2 2-1 4-1 1-2-3 2-2zm-2 1l-1 1-2-2 2-3v-1l2 1c1 1 0 2-1 4zm-17-24h2l-2 2h-4l1-2h3zm3-3l1-1-2 3h-3-1l1-2h4zm1-4h2l-2 3h-3-1l1-2 3-1zm2-4h1l-1 3h-4l1-2 3-1zm0-3l2-1-1 3-3 1h-1v-2l3-1zm2-6l-3 2h-1v-2l3-2 1-1v3zm0 3v1l-3 1-1 1v-2l3-2 1-1v2zm-2-9l1-1v3l-2 2h-1v-2l2-2zm-1-4l1-1v3l-2 2v1l-1-2 2-3zm-2-4l1-1 1 3-2 2v1l-1-2c-1-1 1-2 1-3zm-3-2l-1 1-1-2v-3l1-2 2 3-1 3zm1-1l1-1 1 2-1 3-1 1-1-2 1-3zm-25 48v-1h2l3 2v1h-3l-2-2zm-3 0l-1-1h2l3 3v1h-3l-1-3zm5 5l-4 2h-1v-4h5v2zm-5 32v-1l3-1 2-1v3h-5zm0-10h4l1-1v3l-4 1-1 1v-4zm5-2l-4 1-1 1v-3l4-1 1-1v3zm0 8l-4 1-1 1v-4h4l1-1v3zm-5-18h4l1-1v3l-4 1-1 1v-4zm0-7l4-1 1-1v3l-4 1-1 1v-3zm0 3h4l1-1v3l-4 1-1 1v-4zm5 23v-4-4-4-4-5l1-4-1-3 1-3c1 1 3 0 3-1 0 1 4 1 4-1 1 0 3 1 4-1 1 0 3 0 3-2 2 0 3-1 4-3 0 2 2 3 3 3l2 3 3 3 3 3 3 3s1 2 3 2c0 1 0 2 2 3l3 3 1 1h1l-4 3-1 1-3 3s-3 0-5 3c0 0-3 0-6 3 0 0-2-1-5 2 0 0-3-1-6 2 0 0-2-1-6 1h-5-1l-1-3zm44-16v0zm-1 1l-1-1v-1l1-2 1-2 2 3-1 1-1 1-1 1zm20-36l-1 5s-2 2-2 6c0 0-2 2-2 6 0 0-2 1-3 5 0 0-3 1-3 5 0 0-3 1-4 4l-1 1-3-2c0-2-1-2-3-3 0-2-1-3-3-3 0-2-2-3-2-3l-3-3c-1-2-3-2-3-2l-3-3c0-2-2-2-2-3l-2-2 1-2 3-4c1 0 2-2 1-3 2-1 2-3 2-5v-3h8l4-1h4l4 1 4-1h8l2 1v3l-1 6zm-2-35l1 6 2 5v8h-4l-4 1-4-1h-4l-4 1-4-1h-8-1l-1-2c1-2 0-3-1-4l-1-4-2-4-2-3-1-2 2-2 3-3 3-3c2 0 2-3 2-3l3-2 3-3 3-3 3-3 2-1c0 1 1 2 3 2 0 0 0 3 3 5 0 0 0 3 3 5 0 0 0 3 3 6 0 0-1 2 2 5zm-43-3l2 2-1 3v1l-1-2v-3-1zm-3-3l2 2v4l-2-1v-3-2zm-1 4l-2-1-1-4v-1l3 2v3 1zm-4-2l-2-1-1-3v-1l3 1v4zm-39 51h-2l3-3v1l2 1 1 2-1 1c-1 0-2 0-3-2zm-3 3l-2-1 3-2 3 2 1 1-2 2-3-2zm-3 3l-1-1 2-2 3 2h1l-1 2c-1 1-2 0-4-1zm-3 2h-1c1-1 2-3 3-2l2 2h2l-2 2-4-2zm-3 3h-1c1-1 2-3 3-2l2 1 2 1-2 2-4-2zm-3 3l-1-1c1 0 2-2 3-1l2 1 2 1-2 2-4-2zm-2 3l-2-1 3-2 3 2 1 1-2 1c-1 1-2 0-3-1zm-2 0l3 2h1l-2 2-3-1-2-1 3-2zm-21-44l1 4 1 1h-3v-4-1h1zm29 0h3v5h-1l-1-3-1-2zm-4 0h3l1 4 1 1h-3l-1-4-1-1zm-4 0h3l1 4 1 1h-3l-1-4-1-1zm-4 0h3l1 4 1 1h-3l-1-4-1-1zm-4 0h3l1 4 1 1h-3l-1-3-1-2zm-4 0h3l1 4 1 1h-4v-4l-1-1zm-3 5h-3l-1-3-1-2h3l1 4 1 1zm0-4l-1-1h3l1 4 1 1h-4v-4zm15-47l-2 4v1l-3-2 2-1a20 20 0 001-3h1l1 1zm36 18l-1-1 3-1 2 2v1l-2 1-2-2zm-4 1l-1-1 3-1 2 2 1 1-2 1-3-2zm-4 2l-1-1 3-1 3 2-1 1c-1 1-3-1-4-1zm-3 2h-1l2-2 4 2-1 1c-1 1-3 0-4-1zm-3 3h-1l1-1v-1h1l3 1h1l-1 1h-4zm-4-1l2-3 1-1 1 2-2 2v1h-1l-1-1zm-3-3l2-3 1-1 2 2-2 3-1 2-2-3zm-2-3l1-3 1-1 2 2s0 2-2 3v2c-1-1-3-2-2-3zm-3-3l2-2v-2l2 2-2 4v1c-1 0-3-1-2-3zm-3-2l2-3v-2l2 2-2 4v1c-1 0-3-1-2-2zm-3-3l2-3v-2l2 2-1 4-1 1-2-2zm-3-5l-1 2-2-3 2-3 1-1 2 2s0 2-2 3zm0 2l2-3v-1l2 2-1 3-1 1-2-2zm19 21h-2l2-2h4l-1 2h-3zm-3 3h-1l2-2h4l-1 2h-4zm-1 4h-2l2-3h4l-1 2-3 1zm-2 4h-1l1-3h3l1-1v2l-4 2zm-1 4h-1l1-3 3-1h1v2l-4 2zm0 9l2-2h1v2l-2 2-1 1v-3zm-1-8l3-1 1-1v2l-3 2-1 1v-3zm0 4l3-2h1v2l-3 2-1 1v-3zm3 10l-1 1v-3l2-2v-1l1 2-2 3zm2 4l-1 1-1-3 2-2v-1l1 2-1 3zm3 2l1-1 1 2v3l-1 2-2-3 1-3zm-1 1l-1 2-1-3 1-3 1-1 1 2-1 3zm25-48v1h-2l-2-2-1-1 3-1 2 3zm-1-21l3-1h1v2l-3 2h-2l1-3zm5-14l-4 1h-1v-3h5v2zm-2 32l1 3 1 1h-2l-2-3-1-1h3zm-4-1l1-1 3-1h2l-1 2-1 1h-4v-1zm1-5l3-1h2v2l-4 2h-1v-3zm0-4l3-1h2v2l-4 2h-1v-3zm5-3l-4 2h-1v-3l3-1h2v2zm-5-9l3-1 2-1v3l-4 1-1 1v-3zm0-8l3-1h1l1 2-4 2h-2l1-3zm0 4l3-1h2v2l-4 2h-1v-3zm8 27c1-1 2 0 3 1l1 3h-2l-1-3-1-1zm0 3h-2l-1-3-1-1 3 1 1 3zm-9-35v5 26c-3-1-4 1-4 1-2-1-3 0-4 1-1-1-3 0-4 1l-4 2-3 2-2-2-3-3-3-3c-1-2-3-2-3-2-1-3-3-3-3-3l-3-3-3-3c0-2-2-3-2-3l-1-1 3-4s2 0 5-3c0 0 2 0 5-3 0 0 2 0 5-3 0 0 2 1 5-2 0 0 3 1 6-2 0 0 2 1 6-1h7v3zm-63 51l1-6s2-1 2-5c0 0 2-2 2-6 0 0 2-1 3-5 0 0 3-1 4-5l1-1 2-3 1-1 2 2 3 3 3 3 3 3 3 3 3 3s0 2 3 3l3 3 1 1-1 2c-1 1-3 2-3 4l-1 3c-1 1-2 2-1 4-1 1-2 3-1 5h-1l-3 1H68l-4-1-4 1-1-1v-4l1-6zm4 40s0-3-2-5l-1-6s0-3-2-5l1-2-1-4v-1h33l1 1c-1 1 0 4 1 4l1 4 2 3c0 2 1 4 3 4v2l-2 2c-1 1-3 1-3 3l-3 3-3 3-3 3-3 3-3 2s-2 1-2 3l-2 1-3-3s0-2-3-4c0 0 0-3-3-5 0 0 0-3-3-6zm41-2h-1l-1-2 1-3v-1l2 2-1 3v1zm4 3l-3-2v-3-1l2 1 1 3v2zm2-4l-1-1-2-1-1-1-1-1-2-2v-1l-2-2v-1l-2-2v-1l-1-2v-2l-1-1v-2-2-1-3-1-2l1-2v-2l1-1v-2l1-1 1-2 1-1 1-2 1-1 1-2 2-1 1-1 2-1 1-1 2-1 1-1h2l2-1h5l2-1 1 1h6l2 1h2l1 1 2 1 1 1 2 1 1 1 2 1v1l2 2 1 1 1 1 1 2 1 2v1l1 2v1l1 2v2l1 2-1 1 1 3-1 1v4l-1 2v1l-1 2-1 1-1 2-1 1-1 2-1 1-1 2h-2l-1 2-1 1-2 1h-2l-1 1-2 1-2 1h-3-2l-2 1-1-1h-2-4l-1-1h-2l-2-1-1-1-2-1zm-1 0l1 1 1 3v2l-2-2v-3-1zm3 2l2 1 1 3v1l-3-1v-3-1zm10 47c-2 0-3-3-3-4v-1h3l3 4 1 2-4-1zm-7 0l-2-5v-1l3 1 3 4 1 2-5-1zm-6-1l-2-5v-1h3l3 5 1 2-5-1zm-6-2l-1-5-1-1 3 1c2 0 2 4 3 5v2l-4-2zm-6-2l-1-5v-1l3 1 2 5v2l-4-2zm-6-3v-5-1l3 1 1 6v2l-4-3zm-6-3v-5l1-1 2 1 1 6v2l-4-3zm2 3l3 1 3 2 3 1 3 1 3 1 3 1 4 1 2 1h4l3 1 4-1 2 1 4-1 3 1 3-1h3l4-1h3l3-2h3l3-2 3-1 3-2 3-1 3-2 2-1 3-3 3-1 2-3 3-2 2-3 2-2 2-3 2-2 2-3 2-2 1-4 2-2 1-4 1-2 1-3 1-3 1-4 1-2v-4l1-3-1-4 1-3-1-3 1-3-1-3v-4l-1-3v-3l-2-3v-3l-2-4-1-2-2-4-1-2c0-2-2-3-2-3l-1-3-3-3-1-2-3-3-2-2-2-2-3-3-3-1-1-2-4-2-2-2-3-1-3-2-3-1-3-1-3-1-3-1-4-1-2-1h-4l-3-1h-4-6-3l-3 1h-4l-3 1h-3l-3 2h-3l-3 2-3 1c-2 0-3 2-3 2l-3 1-3 2-3 1-2 3-3 1-2 3-3 1-2 3-2 2-2 3-2 2-2 4-2 2-1 3-2 3-1 3-1 3-1 3-2 3v4l-1 2v4l-1 3v13l1 4v3l1 3v3l2 3v3l2 3 1 3c0 2 2 3 2 3v3l3 3 1 3 3 2 1 3 3 2 1 2 3 3 2 2 3 2 2 2 4 1s0 2 2 3zm14 20l1 3 3-1-2 9h3l2-12h-2zm-16 0l10 4 1-3-10-4zm163-80l-8 4-1 1-1-6c1-2 6-4 7-5l3-2v8zm-1 10l-8 4-2 1 1-6c0-2 6-4 7-5l3-1c1 2 0 5-1 7zm-2 11c-2 2-7 2-8 3h-2l1-5c1-2 6-4 8-4l3-2c1 3 0 6-2 8zm-3 10c-1 2-7 2-8 2l-2 1 1-6c1-2 7-3 9-3l3-1c0 2-1 5-3 7zm-3 10c-2 2-8 2-9 2h-2l2-5c1-2 7-3 8-3l4-1c0 3-1 6-3 7zm-5 10l-8 1h-3l3-5c1-2 7-2 9-2l3-1c0 3-2 5-4 7zm-5 9c-2 2-8 1-9 0h-2l3-4c1-2 7-2 9-2h3c0 2-2 5-4 6zm-6 9c-3 1-8 0-9-1h-2l3-4c1-2 7-1 9-1h3c0 3-2 5-4 6zm-7 8c-3 1-8-1-9-1h-2l4-5c1-1 7 0 9 1h3c0 2-3 4-5 5zm-8 8c-2 1-7-2-8-2l-2-1 4-4c1-1 7 1 9 1l3 1c-1 2-3 4-6 5zm-8 7c-3 0-7-3-8-3l-2-1 4-3c2-1 7 1 9 2h3c-1 3-4 4-6 5zm-9 6l-8-4-2-1 5-3c2-1 7 2 9 3l3 1c-1 2-4 4-7 4zm-9 5c-3 0-7-3-7-4l-2-1 5-3c2-1 7 3 8 4l3 1c-2 2-5 3-7 3zm-10 5c-2 0-6-4-7-5l-2-1 5-2c2-1 7 3 9 4l2 1c-1 2-4 3-7 3zm-10 4l-6-6-2-1 5-2c2 0 7 4 8 5l3 2-8 2zm-10 3c-3-1-6-6-6-6l-2-2 6-1c2-1 6 4 7 5l2 2c-2 2-5 2-7 2zm-11 2c-2-1-5-6-5-7l-2-2h6c2-1 6 4 7 6l2 2-8 1zm-11 0c-2-1-4-6-4-6l-2-2 6-1 6 7 2 3c-2 1-5 1-8-1zm-10 0c-3-1-4-6-4-7l-1-2h5l6 7 1 3c-2 1-5 1-7-1zm-11 0c-2-2-3-7-3-8l-1-2 5 1c2 0 5 6 5 7l2 3c-3 1-6 0-8-1zm-10-2c-2-2-3-7-3-8l-1-2 5 1c2 0 4 6 5 8l1 3-7-2zm-11-3c-2-2-2-7-2-8l-1-2 6 1c2 1 3 7 3 9l1 3c-2 0-5-1-7-3zm-10-4c-2-2-1-7-1-8l-1-2 5 2c2 1 3 7 3 8l1 4-7-4zm-11-17s-3-5-8-6c0 0-2-3-8-6 0 0-1-4-7-6 0 0-1-4-7-8 0 0 0-4-6-8 0 0 0-4-5-8 0 0 1-4-4-9 0 0 0-5-4-9 0 0 1-6-2-9 0 0 1-5-2-10v-3l-1-7s2-4-1-9c0 0 3-4 1-10 0 0 3-4 2-10 0 0 2-2 2-10 0 0 3-1 3-9 0 0 3-2 4-9 0 0 3-1 5-8 0 0 3-2 5-8l3-3 3-5 4-3 3-4s4-1 7-7c0 0 5 0 8-6 0 0 4 0 9-5 0 0 4 0 8-4 0 0 5 1 10-4 0 0 4 1 9-2 0 0 4 1 9-2 0 0 4 1 10-1 0 0 3 2 10 0 0 0 4 2 10 0 0 0 3 3 9 2 0 0 3 3 10 2 0 0 2 3 9 3 0 0 2 3 9 4 0 0 2 3 9 5 0 0 1 3 8 5 0 0 1 3 8 6 0 0 1 4 7 7 0 0 0 3 6 7 0 0 1 4 6 8 0 0 0 5 5 8 0 0 0 5 4 9 0 0 0 5 4 9 0 0 0 6 3 10 0 0-1 4 2 9 0 0-2 4 1 10 0 0-2 4 0 10 0 0-2 2-1 10 0 0-2 2-1 9 0 0-3 3-3 9l-3 10s-3 2-4 9c0 0-3 2-4 8 0 0-4 3-6 8 0 0-4 3-6 8 0 0-4 2-6 7l-2 1-6 6-2 1c-2 0-4 2-6 5 0 0-4 0-8 5 0 0-4-1-9 4 0 0-4 0-9 4 0 0-4-1-9 3 0 0-5-2-10 2 0 0-4-2-10 1 0 0-4-2-10 0 0 0-3-2-9-1 0 0-3-2-10-1 0 0-2-3-10-2 0 0-2-4-9-4 0 0-2-3-9-4 0 0-2-3-8-4zm1 13v-8-3l4 3c2 1 2 7 2 9l1 3c-3 0-5-2-7-4zm-9-6v-8-2c2 0 3 1 5 3 2 1 1 7 1 9v3c-2 0-5-2-6-5zm-3-1c-2 0-5-2-6-5-1-2 1-7 1-8v-2c2 0 3 2 5 3v12zm-8-10v4c-3-1-5-3-6-5-1-3 1-8 2-9v-2l4 4v8zm-8-6l-1 3c-2-1-4-3-4-6-1-2 1-7 2-8v-2l4 4c1 1-1 7-1 9zm-8-5c-2-1-4-4-4-6-1-2 2-7 2-8l1-2 4 4c1 2-2 7-2 9l-1 3zm-6-12l-1 4-4-7 4-7 1-2 3 4c1 2-2 7-3 8zm-5-8l-2 3c-2-2-3-5-3-7 0-3 4-7 4-7l1-2 3 4c1 2-2 7-3 9zm-7-7c-2-1-3-4-2-7l4-7 2-1 2 4-4 8-2 3zm-4-10c-2-1-3-4-2-7 0-2 4-6 5-6l1-2 2 5c1 2-3 6-4 7l-2 3zm-5-17c1-3 5-6 6-6l1-2 2 5c0 2-4 6-6 8l-2 2c-1-2-2-5-1-7zm-2-11l6-5 2-2 1 5c0 3-4 6-6 7l-2 3c-2-2-2-5-1-8zm-1-3v-7c1-3 6-5 7-5l2-1v5c0 2-5 5-6 6l-3 2zm0-18c1-2 6-4 7-4l2-1v5c0 2-5 5-7 5l-3 2c-1-2 0-5 1-7zm1-11c1-2 7-3 8-4h2l-1 5c0 2-6 4-7 5-2 0-3 2-3 2-1-3 0-6 1-8zm2-10c1-2 7-3 7-3l2-1v5c-1 2-7 4-8 4l-3 2c-1-2 0-5 2-7zm3-11c1-2 7-2 8-2l2-1-2 5c0 2-6 4-8 4l-3 1c-1-2 1-5 3-7zm3-10l8-1 3-1-2 5c-1 2-7 3-9 3l-3 1c0-2 1-5 3-7zm5-10h10l-2 4c-1 2-7 2-9 2l-3 1c0-3 1-5 4-7zm5-9h11l-3 4c-1 2-7 2-9 2h-3c0-2 2-5 4-6zm6-9c2-1 8 1 8 1h3l-3 4c-2 2-8 1-9 1h-4l5-6zm7-8c2-1 7 1 8 1l2 1-3 4h-9l-3-1c0-2 3-4 5-5zm7-8l9 3h2l-4 4c-2 1-7-1-9-1l-3-1c0-2 3-4 5-5zm9-7l8 3 2 1-4 3c-2 1-8-1-9-1l-4-1 7-5zm9-6l7 4 2 1-4 3c-2 1-7-2-9-3l-3-1c1-2 4-3 7-4zm9-5l7 4 2 1-5 3c-2 1-7-3-8-3l-3-2c1-2 4-3 7-3zm9-5c3 0 7 4 7 5l2 1-5 3-8-4-3-2c2-2 5-3 7-3zm11-3c2 0 6 4 6 5l2 2-5 1c-2 1-7-3-8-4-1-2-3-2-3-2 2-2 5-3 8-2zm10-3c3 0 5 5 6 6l2 1-6 2c-2 0-6-4-7-6l-3-2c2-1 6-2 8-1zm11-2l5 6 1 2-5 1c-2 0-6-5-7-6l-2-2c2-2 5-2 8-1zm10-1c3 1 5 6 5 7l1 2h-5c-2 0-5-5-6-6l-2-3h7zm11 0c2 1 4 6 4 7l1 2h-5c-2 0-5-6-6-7 0-2-2-3-2-3 3-1 6 0 8 1zm11 1c2 1 3 6 3 7l1 2h-5c-2-1-5-6-5-8l-2-2c2-1 6-1 8 1zm10 2c2 1 3 7 3 7l1 3-6-1c-2-1-3-7-4-8l-1-3c2-1 5 0 7 2zm11 3l2 8v2l-5-2c-2-1-3-6-3-8l-2-3c3-1 6 1 8 3zm10 3l1 8v2l-5-2c-2 0-2-6-2-8l-1-3c2 0 5 1 7 3zm9 5c2 2 1 7 1 8v2l-5-2-2-9v-3c2 0 5 2 6 4zm10 5v8 2l-5-2c-2-2-1-8-1-9v-4l6 5zm3 1c2 0 4 3 6 5 1 2-1 7-1 8l-1 2-4-3v-9-3zm8 10v-4c3 1 5 3 6 6 1 2-1 7-2 8v2l-4-4c-2-1 0-7 0-8zm8 7v-4c3 1 5 4 5 6 1 3-2 7-2 8l-1 2-3-4c-2-1 0-7 1-8zm8 4c2 1 4 4 4 6 1 3-2 7-3 8v2l-4-4c-1-2 1-7 2-9l1-3zm5 12l2-3c2 1 3 4 3 6 1 3-3 7-3 8l-1 1-3-4c-1-2 2-7 2-8zm6 8l2-3c2 2 3 5 3 7 0 3-4 7-4 7l-2 2-2-4c-1-2 2-7 3-9zm7 7c2 2 3 5 2 7 0 3-4 6-5 7l-1 2-2-5c-1-2 3-7 4-8l2-3zm4 10c2 1 3 5 2 7 0 3-4 6-5 6l-2 2-1-5c-1-2 3-6 4-7l2-3zm5 18l-6 5-2 2-1-5c0-2 4-6 5-7l2-3c2 2 3 5 2 8zm2 10c-1 2-6 5-7 5l-1 2-1-6c-1-2 4-5 6-6l2-3c1 2 2 6 1 8zm1 3v8c-1 2-6 4-7 4l-2 2v-6c0-2 5-5 6-6l3-2zm3 15l-1-7 1-4-2-6v-6c0-3-2-5-2-5v-5l-2-6-1-5-3-5-1-5-4-5-1-4-4-5-2-5-5-5-1-3-6-5-2-4-5-3c-1-3-3-4-4-5l-5-3-3-3-5-3-5-3-5-2-3-3-7-2-4-2-6-1s-1-2-4-2l-6-1s-2-2-5-2h-6l-5-2-6 1-5-1-6 1-5-1-6 2h-5l-6 1-5 1-5 2-6 1-5 3-4 1c-3 1-5 4-5 4l-5 1-5 4-4 2-5 4-4 2-4 5-5 3-3 5-4 3-3 5-4 4-2 5-4 4-2 6-3 4-2 6-2 4-1 6-3 4v6s-2 2-2 5v6l-2 5 1 6-1 5 1 6-1 5 2 6v5l2 6v5l2 5 1 5 3 6 1 4 4 6 1 4 4 5 2 5 4 4 2 4 5 5 3 3 5 4 3 4 6 3 3 3 5 3 4 3 6 3 4 3 6 1 4 3 6 1 4 2 7 1 4 2h6l5 1h6l5 1 6-1h5l6-1h5l6-2h4l6-3 5-1 5-2 5-2 5-3s3 0 5-2c3-1 5-4 5-4l4-2c3-1 5-4 5-4l4-2 4-5 4-2 4-6 4-3 3-5 4-3 2-6 3-3 3-6 3-4 2-6 2-4 1-6s2-2 2-5l1-6 2-4v-7l1-5v-6l1-4"/></svg>